<svg width="52" height="52" viewBox="0 0 52 52" fill="none" xmlns="http://www.w3.org/2000/svg">
<path d="M34.9479 23.725C32.0127 23.725 31.6064 26.65 31.6064 26.65H37.8424C37.8424 26.65 37.883 23.725 34.9479 23.725Z" fill="#232020"/>
<path d="M20.7999 26.65H15.2749V31.7281H20.5257C21.3179 31.7078 22.8007 31.4844 22.8007 29.2602C22.8007 26.6195 20.7999 26.65 20.7999 26.65Z" fill="#232020"/>
<path d="M26 3.25C13.4367 3.25 3.25 13.4367 3.25 26C3.25 38.5633 13.4367 48.75 26 48.75C38.5633 48.75 48.75 38.5633 48.75 26C48.75 13.4367 38.5633 3.25 26 3.25ZM30.7938 17.225H38.6242V19.5609H30.7938V17.225ZM26.8328 29.4937C26.8328 35.2828 20.8 35.1 20.8 35.1H10.9281V16.1078H20.8C23.8062 16.1078 26.1727 17.7633 26.1727 21.1656C26.1727 24.568 23.2781 24.7812 23.2781 24.7812C27.0969 24.7812 26.8328 29.4937 26.8328 29.4937ZM41.4781 29.1789H31.6367C31.6367 32.7031 34.9781 32.4797 34.9781 32.4797C38.1367 32.4797 38.025 30.4383 38.025 30.4383H41.3664C41.3664 35.8617 34.8664 35.4859 34.8664 35.4859C27.0766 35.4859 27.5742 28.2242 27.5742 28.2242C27.5742 28.2242 27.5641 20.932 34.8664 20.932C42.5547 20.9422 41.4781 29.1789 41.4781 29.1789Z" fill="#232020"/>
<path d="M22.1405 21.4602C22.1405 19.4898 20.7999 19.4898 20.7999 19.4898H15.2749V23.725H20.4546C21.3483 23.725 22.1405 23.4305 22.1405 21.4602Z" fill="#232020"/>
</svg>
