<svg width="42" height="42" viewBox="0 0 42 42" fill="none" xmlns="http://www.w3.org/2000/svg">
<path d="M31.498 0.0087388L26.0516 0C19.9328 0 15.9785 4.05699 15.9785 10.3363V15.102H10.5024C10.0292 15.102 9.646 15.4856 9.646 15.9588V22.8638C9.646 23.337 10.0296 23.7202 10.5024 23.7202H15.9785V41.1436C15.9785 41.6168 16.3617 42 16.8349 42H23.9797C24.4529 42 24.8361 41.6164 24.8361 41.1436V23.7202H31.2389C31.7121 23.7202 32.0953 23.337 32.0953 22.8638L32.0979 15.9588C32.0979 15.7316 32.0075 15.514 31.8471 15.3532C31.6868 15.1924 31.4683 15.102 31.2411 15.102H24.8361V11.062C24.8361 9.12025 25.2988 8.13451 27.8282 8.13451L31.4971 8.1332C31.9699 8.1332 32.3531 7.74957 32.3531 7.2768V0.865142C32.3531 0.392809 31.9703 0.00961268 31.498 0.0087388Z" fill="#232020"/>
</svg>
