<svg width="44" height="44" viewBox="0 0 44 44" fill="none" xmlns="http://www.w3.org/2000/svg">
<g clip-path="url(#clip0_9043_1360)">
<path d="M32.0895 0H11.9104C5.34289 0 0 5.34289 0 11.9104V32.0899C0 38.657 5.34289 43.9999 11.9104 43.9999H32.0899C38.657 43.9999 43.9999 38.657 43.9999 32.0899V11.9104C43.9999 5.34289 38.657 0 32.0895 0ZM22 34.0308C15.366 34.0308 9.96907 28.6339 9.96907 22C9.96907 15.366 15.366 9.96907 22 9.96907C28.6339 9.96907 34.0308 15.366 34.0308 22C34.0308 28.6339 28.6339 34.0308 22 34.0308ZM34.3185 12.8063C32.3581 12.8063 30.7636 11.2118 30.7636 9.25136C30.7636 7.29091 32.3581 5.69603 34.3185 5.69603C36.279 5.69603 37.8739 7.29091 37.8739 9.25136C37.8739 11.2118 36.279 12.8063 34.3185 12.8063Z" fill="#232020"/>
<path d="M21.9998 12.5485C16.7885 12.5485 12.5483 16.7883 12.5483 22C12.5483 27.2112 16.7885 31.4514 21.9998 31.4514C27.2114 31.4514 31.4512 27.2112 31.4512 22C31.4512 16.7883 27.2114 12.5485 21.9998 12.5485Z" fill="#232020" stroke="#0E0D0D" stroke-width="4"/>
</g>
<defs>
<clipPath id="clip0_9043_1360">
<rect width="44" height="44" fill="white"/>
</clipPath>
</defs>
</svg>
