<svg width="74" height="74" viewBox="0 0 74 74" fill="none" xmlns="http://www.w3.org/2000/svg">
<g clip-path="url(#clip0_9134_1206)">
<path d="M53.7909 0.0244141H19.9651C8.95614 0.0244141 0 8.98056 0 19.9895V53.8159C0 64.8242 8.95614 73.7804 19.9651 73.7804H53.7915C64.7998 73.7804 73.756 64.8242 73.756 53.8159V19.9895C73.756 8.98056 64.7998 0.0244141 53.7909 0.0244141ZM36.878 57.0695C25.7576 57.0695 16.7109 48.0227 16.7109 36.9024C16.7109 25.7821 25.7576 16.7353 36.878 16.7353C47.9983 16.7353 57.0451 25.7821 57.0451 36.9024C57.0451 48.0227 47.9983 57.0695 36.878 57.0695ZM57.5273 21.4914C54.2411 21.4914 51.5682 18.8185 51.5682 15.5322C51.5682 12.246 54.2411 9.57253 57.5273 9.57253C60.8136 9.57253 63.487 12.246 63.487 15.5322C63.487 18.8185 60.8136 21.4914 57.5273 21.4914Z" fill="white"/>
<path fill-rule="evenodd" clip-rule="evenodd" d="M23.707 36.9025C23.707 29.6388 29.6146 23.7318 36.8778 23.7318C44.1414 23.7318 50.0485 29.6388 50.0485 36.9025C50.0485 44.1657 44.1414 50.0732 36.8778 50.0732C29.6145 50.0732 23.707 44.1657 23.707 36.9025ZM36.8778 26.3602C31.0661 26.3602 26.3354 31.0905 26.3354 36.9025C26.3354 42.7141 31.0662 47.4448 36.8778 47.4448C42.6897 47.4448 47.4201 42.7141 47.4201 36.9025C47.4201 31.0905 42.6898 26.3602 36.8778 26.3602Z" fill="white" stroke="white" stroke-width="3"/>
</g>
<defs>
<clipPath id="clip0_9134_1206">
<rect width="73.7561" height="73.7561" fill="white" transform="translate(0 0.0244141)"/>
</clipPath>
</defs>
</svg>
