<svg width="42" height="42" viewBox="0 0 42 42" fill="none" xmlns="http://www.w3.org/2000/svg">
<g clip-path="url(#clip0_9043_1333)">
<path fill-rule="evenodd" clip-rule="evenodd" d="M22.7444 18.8631V18.8017C22.7319 18.8223 22.7145 18.8429 22.7036 18.8631H22.7444Z" fill="#232020"/>
<path fill-rule="evenodd" clip-rule="evenodd" d="M0 0V42H42V0H0ZM13.0636 34.8925H6.83225V16.1452H13.0636V34.8925ZM9.94791 13.5864H9.90674C7.81643 13.5864 6.46154 12.1463 6.46154 10.3463C6.46154 8.5068 7.85603 7.10751 9.98871 7.10751C12.1218 7.10751 13.4327 8.5068 13.4735 10.3463C13.4735 12.1463 12.1218 13.5864 9.94791 13.5864ZM35.5385 34.8925H29.3055V24.8626C29.3055 22.3434 28.4049 20.6238 26.149 20.6238C24.4262 20.6238 23.4024 21.7817 22.9514 22.9032C22.7874 23.3038 22.7446 23.8607 22.7446 24.4225V34.8926H16.5104C16.5104 34.8926 16.594 17.904 16.5104 16.1453H22.7446V18.8018C23.5729 17.5273 25.051 15.7051 28.3621 15.7051C32.464 15.7051 35.5385 18.3839 35.5385 24.1419V34.8925Z" fill="#232020"/>
</g>
<defs>
<clipPath id="clip0_9043_1333">
<rect width="42" height="42" fill="white"/>
</clipPath>
</defs>
</svg>
