<svg width="136" height="246" viewBox="0 0 136 246" fill="none" xmlns="http://www.w3.org/2000/svg">
<mask id="mask0_11180_550" style="mask-type:alpha" maskUnits="userSpaceOnUse" x="13" y="0" width="109" height="190">
<path d="M13.97 53.4501C13.97 23.4781 31.75 0.618102 71.374 0.618102C107.442 0.618102 121.666 20.6841 121.666 42.2741C121.666 81.6441 76.962 94.5981 36.576 99.6781V106.79L52.324 101.456H108.712V123.3H27.94V80.1201C56.388 78.8501 95.758 70.9761 95.758 42.2741C95.758 29.0661 86.614 22.2081 71.12 22.2081C49.022 22.2081 39.878 33.1301 39.878 53.4501H13.97ZM67.818 189.848C52.578 189.848 42.926 178.926 42.926 164.448C42.926 150.478 52.578 139.556 67.818 139.556C82.55 139.556 93.218 150.478 93.218 164.448C93.218 178.926 82.55 189.848 67.818 189.848Z" fill="#FF0054"/>
</mask>
<g mask="url(#mask0_11180_550)">
<rect x="-16" y="-25.6919" width="168" height="146" fill="white"/>
</g>
<circle cx="70" cy="169.308" r="29" fill="#FF0054"/>
</svg>
