<svg width="42" height="74" viewBox="0 0 42 74" fill="none" xmlns="http://www.w3.org/2000/svg">
<mask id="mask0_11180_552" style="mask-type:alpha" maskUnits="userSpaceOnUse" x="4" y="1" width="33" height="57">
<path d="M4.71336 17.1193C4.71336 8.21066 9.99814 1.41594 21.7757 1.41594C32.4962 1.41594 36.724 7.38019 36.724 13.7974C36.724 25.4994 23.4366 29.3498 11.4326 30.8597V32.9736L16.1134 31.3882H32.8737V37.8809H8.86569V25.0465C17.3213 24.669 29.0233 22.3286 29.0233 13.7974C29.0233 9.87159 26.3055 7.83317 21.7002 7.83317C15.1319 7.83317 12.414 11.0795 12.414 17.1193H4.71336ZM20.7187 57.6611C16.1889 57.6611 13.32 54.4147 13.32 50.1114C13.32 45.9591 16.1889 42.7127 20.7187 42.7127C25.0975 42.7127 28.2684 45.9591 28.2684 50.1114C28.2684 54.4147 25.0975 57.6611 20.7187 57.6611Z" fill="#FF0054"/>
</mask>
<g mask="url(#mask0_11180_552)">
<rect x="-4.19531" y="-6.82153" width="49.9349" height="43.3958" fill="white"/>
</g>
<circle cx="21.7471" cy="51.5189" r="9" fill="#FF0054"/>
</svg>
