<svg width="87" height="156" viewBox="0 0 87 156" fill="none" xmlns="http://www.w3.org/2000/svg">
<mask id="mask0_11180_551" style="mask-type:alpha" maskUnits="userSpaceOnUse" x="8" y="0" width="70" height="121">
<path d="M8.85488 33.7884C8.85488 14.7833 20.1291 0.287925 45.2544 0.287925C68.1249 0.287925 77.1443 13.0117 77.1443 26.7018C77.1443 51.6661 48.7977 59.8801 23.1892 63.1013V67.611L33.1749 64.2287H68.9302V78.0799H17.7132V50.6997C35.7519 49.8944 60.7162 44.9015 60.7162 26.7018C60.7162 18.3266 54.918 13.978 45.0934 13.978C31.0812 13.978 25.283 20.9036 25.283 33.7884H8.85488ZM42.9996 120.278C33.336 120.278 27.2157 113.352 27.2157 104.172C27.2157 95.3133 33.336 88.3877 42.9996 88.3877C52.3411 88.3877 59.1056 95.3133 59.1056 104.172C59.1056 113.352 52.3411 120.278 42.9996 120.278Z" fill="#FF0054"/>
</mask>
<g mask="url(#mask0_11180_551)">
<rect x="-10.1499" y="-15.8188" width="106.528" height="92.5778" fill="white"/>
</g>
<circle cx="45.1937" cy="108.641" r="19.2" fill="#FF0054"/>
</svg>
